<svg id="Ebene_1" data-name="Ebene 1" xmlns="http://www.w3.org/2000/svg" viewBox="0 0 283.46 283.46"><defs><style>.cls-1{fill:none;stroke:#1d1d1b;stroke-miterlimit:10;stroke-width:7px;}</style></defs><title>Zeichenfläche 7</title><rect class="cls-1" x="28.35" y="28.35" width="70.87" height="226.77"/><rect class="cls-1" x="42.52" y="49.61" width="42.52" height="120.47"/><circle class="cls-1" cx="63.78" cy="212.6" r="14.17"/><line class="cls-1" x1="49.61" y1="155.91" x2="77.95" y2="155.91"/><line class="cls-1" x1="49.61" y1="141.73" x2="77.95" y2="141.73"/><line class="cls-1" x1="49.61" y1="127.56" x2="77.95" y2="127.56"/><rect class="cls-1" x="120.47" y="49.61" width="42.52" height="120.47"/><circle class="cls-1" cx="141.73" cy="212.6" r="14.17"/><line class="cls-1" x1="127.56" y1="155.91" x2="155.91" y2="155.91"/><line class="cls-1" x1="127.56" y1="141.73" x2="155.91" y2="141.73"/><line class="cls-1" x1="127.56" y1="127.56" x2="155.91" y2="127.56"/><rect class="cls-1" x="106.3" y="28.35" width="70.87" height="226.77"/><rect class="cls-1" x="198.43" y="49.61" width="42.52" height="120.47"/><circle class="cls-1" cx="219.69" cy="212.6" r="14.17"/><line class="cls-1" x1="205.51" y1="155.91" x2="233.86" y2="155.91"/><line class="cls-1" x1="205.51" y1="141.73" x2="233.86" y2="141.73"/><line class="cls-1" x1="205.51" y1="127.56" x2="233.86" y2="127.56"/><rect class="cls-1" x="184.25" y="28.35" width="70.87" height="226.77"/></svg>