<svg id="Ebene_1" data-name="Ebene 1" xmlns="http://www.w3.org/2000/svg" viewBox="0 0 283.46 283.46"><defs><style>.cls-1{fill:none;stroke-width:10px;}.cls-1,.cls-2{stroke:#1d1d1b;stroke-miterlimit:10;}.cls-2{fill:#1d1d1b;}</style></defs><title>Zeichenfläche 3</title><polygon class="cls-1" points="56.69 28.35 56.69 255.12 226.77 255.12 226.77 85.04 170.08 28.35 56.69 28.35"/><polyline class="cls-1" points="170.08 28.35 170.08 85.04 226.77 85.04"/><path class="cls-1" d="M141.73,212.6s-28.34,0-4-23.62c13.25-12.84-14.17-11.81-14.17-11.81s27.42,1,14.17-11.82c-24.37-23.62,4-23.62,4-23.62"/><path class="cls-1" d="M170.08,141.73s28.35,0,4,23.62c-13.25,12.84,14.17,11.82,14.17,11.82s-27.42-1-14.17,11.81c24.38,23.62-4,23.62-4,23.62"/><circle class="cls-2" cx="99.21" cy="155.91" r="14.17"/></svg>