<svg id="Ebene_1" data-name="Ebene 1" xmlns="http://www.w3.org/2000/svg" viewBox="0 0 283.46 283.46"><defs><style>.cls-1{fill:none;stroke:#1d1d1b;stroke-miterlimit:10;stroke-width:10px;}</style></defs><title>Zeichenfläche 1</title><polygon class="cls-1" points="56.69 28.35 56.69 255.12 226.77 255.12 226.77 85.04 170.08 28.35 56.69 28.35"/><polyline class="cls-1" points="170.08 28.35 170.08 85.04 226.77 85.04"/><circle class="cls-1" cx="198.43" cy="198.43" r="14.17"/><path class="cls-1" d="M141.73,226.77c23.49,0,42.52-25.38,42.52-56.69h-85C99.21,201.39,118.25,226.77,141.73,226.77Z"/><line class="cls-1" x1="113.39" y1="226.77" x2="170.08" y2="226.77"/><path class="cls-1" d="M127.56,155.91s-14.17,0-14.17-14.18,14.17-14.17,14.17-14.17,14.17,0,14.17-14.17-14.17-14.18-14.17-14.18"/><path class="cls-1" d="M155.91,155.91s-14.18,0-14.18-14.18,14.18-14.17,14.18-14.17,14.17,0,14.17-14.17-14.17-14.18-14.17-14.18"/></svg>